<svg xmlns="http://www.w3.org/2000/svg" viewBox="0 0 64 64">
  <path d="M31.807 61.707c16.172 0 29.6-13.396 29.6-29.568S47.948 2.57 31.776 2.57C15.628 2.57 2.238 15.967 2.238 32.14c0 16.172 13.42 29.568 29.568 29.568Zm15.408-29.605c0 .683-.295 1.2-.867 1.772l-10.11 10.102c-.393.395-.904.629-1.563.629-1.237 0-2.166-.973-2.166-2.198 0-.628.265-1.206.665-1.6l3.728-3.667 3.616-3.02-6.334.228H18.67c-1.335 0-2.277-.948-2.277-2.24 0-1.311.948-2.253 2.277-2.253h15.514l6.31.234-3.592-2.995-3.728-3.697c-.37-.394-.665-.973-.665-1.601 0-1.225.93-2.166 2.166-2.166.66 0 1.17.203 1.564.597L46.348 30.36c.609.61.867 1.102.867 1.742Z"/>
</svg>